<svg width="19" height="13" viewBox="0 0 19 13" xmlns="http://www.w3.org/2000/svg">
    <path d="M9.5 0c2.618 0 4.972 1.051 6.668 2.353.85.652 1.547 1.376 2.036 2.08.48.692.796 1.418.796 2.067 0 .649-.317 1.375-.796 2.066-.49.705-1.186 1.429-2.036 2.08C14.472 11.95 12.118 13 9.5 13c-2.618 0-4.972-1.051-6.668-2.353-.85-.652-1.547-1.376-2.036-2.08C.316 7.874 0 7.148 0 6.5c0-.649.317-1.375.796-2.066.49-.705 1.186-1.429 2.036-2.08C4.528 1.05 6.882 0 9.5 0zm0 2.75a3.75 3.75 0 1 0 0 7.5 3.75 3.75 0 0 0 0-7.5zm0 1.5a2.25 2.25 0 1 1 0 4.5 2.25 2.25 0 0 1 0-4.5z" fill="#BABABA" fill-rule="nonzero"/>
</svg>
