<svg width="13.5" height="19.067" viewBox="0 0 13.5 19.067" xmlns="http://www.w3.org/2000/svg">
    <path d="M6.813.06a.667.667 0 0 0-.759.148.805.805 0 0 0-.205.738c.099.441.151.9.151 1.371 0 1.076-.271 1.83-.738 2.454-.474.635-1.16 1.152-2.027 1.735a.25.25 0 0 0-.038.032l-.105.105a6.75 6.75 0 1 0 9.685 2.63.25.25 0 0 0-.413-.05l-.208.242c-.878 1.026-1.587 1.854-3.04 2.224-.062.016-.1.004-.127-.013a.244.244 0 0 1-.091-.124.411.411 0 0 1 .074-.414c.777-.842 1.329-1.986 1.526-3.613.37-3.048-1.016-6.295-3.685-7.466z" fill="#DE1214" fill-rule="nonzero"/>
</svg>
