<?xml version="1.0" encoding="UTF-8"?>
<svg width="17.5px" height="14.500025px" viewBox="0 0 17.5 14.500025" version="1.1" xmlns="http://www.w3.org/2000/svg" xmlns:xlink="http://www.w3.org/1999/xlink">
    <title>9DC689A6-F544-449F-9378-15E75A21F871</title>
    <g id="Page-1" stroke="none" stroke-width="1" fill="none" fill-rule="evenodd">
        <g id="Herpigo_Page_Medium" transform="translate(-448.000000, -6796.000000)" fill="#DE1214" fill-rule="nonzero">
            <path d="M453.15,6796 C450.36914,6796 448,6798.0793 448,6800.7798 C448,6802.6427 448.87235,6804.2112 450.02849,6805.5104 C451.18066,6806.8052 452.66714,6807.892 454.01097,6808.8016 L456.3296,6810.3711 C456.5835,6810.543 456.9165,6810.543 457.1704,6810.3711 L459.489,6808.8016 C460.8329,6807.892 462.3193,6806.8052 463.4715,6805.5104 C464.6277,6804.2112 465.5,6802.6427 465.5,6800.7798 C465.5,6798.0793 463.1309,6796 460.35,6796 C458.9165,6796 457.6552,6796.67214 456.75,6797.54183 C455.8448,6796.67214 454.58347,6796 453.15,6796 Z" id="heart-red"></path>
        </g>
    </g>
</svg>