<?xml version="1.0" encoding="UTF-8"?>
<svg width="13.9442084px" height="16.2999849px" viewBox="0 0 13.9442084 16.2999849" version="1.1" xmlns="http://www.w3.org/2000/svg" xmlns:xlink="http://www.w3.org/1999/xlink">
    <title>26B71BCE-6C56-48A2-A9D7-39E4DBDCE9E5</title>
    <g id="Page-1" stroke="none" stroke-width="1" fill="none" fill-rule="evenodd">
        <g id="Herpigo_Page_Medium" transform="translate(-410.000000, -6034.000000)" fill="#BABABA" fill-rule="nonzero">
            <path d="M416.412075,6034 C415.954075,6034 415.524975,6034.22406 415.263275,6034.59991 L411.031385,6040.677 C410.236715,6041.8182 409.882525,6043.2087 410.034415,6044.591 L410.359845,6047.5524 C410.498905,6048.8179 411.492375,6049.8203 412.756585,6049.9707 L414.873625,6050.2225 C416.490275,6050.4148 418.129475,6050.2481 419.674275,6049.7343 C420.755675,6049.3746 421.621775,6048.5539 422.039075,6047.4935 L423.747675,6043.1514 C423.830275,6042.9414 423.887375,6042.7222 423.917775,6042.4985 C424.182075,6040.5514 422.422675,6038.93822 420.505675,6039.37017 L416.607775,6040.24848 L417.767675,6035.74935 C417.996075,6034.86335 417.326975,6034 416.412075,6034 Z" id="like"></path>
        </g>
    </g>
</svg>