<?xml version="1.0" encoding="UTF-8"?>
<svg width="30px" height="30px" viewBox="0 0 30 30" version="1.1" xmlns="http://www.w3.org/2000/svg" xmlns:xlink="http://www.w3.org/1999/xlink">
    <title>17F5D6AC-59B7-41A0-8997-FB78B9D9603C</title>
    <g id="Page-1" stroke="none" stroke-width="1" fill="none" fill-rule="evenodd">
        <g id="Herpigo_Page_Medium" transform="translate(-791.000000, -433.000000)">
            <g id="LinkeIn-Icon" transform="translate(791.000000, 433.000000)">
                <rect id="Rectangle" fill="#0077B5" x="0" y="0" width="30" height="30"></rect>
                <path d="M11.1781818,12.5536707 L8.17744124,12.5536707 L8.17744124,21.9997492 L11.1781818,21.9997492 L11.1781818,12.5536707 Z M11.3758181,9.6316176 C11.3563421,8.70543559 10.7241815,8 9.69764704,8 C8.67111261,8 8,8.70543559 8,9.6316176 C8,10.5386152 8.65127707,11.2643637 9.65869507,11.2643637 L9.67787142,11.2643637 C10.7241815,11.2643637 11.3758181,10.5386152 11.3758181,9.6316176 Z M22,16.5836565 C22,13.6822298 20.5196451,12.3318585 18.5450195,12.3318585 C16.9518237,12.3318585 16.2385231,13.2486991 15.8402541,13.8918793 L15.8402541,12.5539215 L12.839154,12.5539215 C12.8787053,13.4402927 12.839154,22 12.839154,22 L15.8402541,22 L15.8402541,16.7245305 C15.8402541,16.4422183 15.8597301,16.1605958 15.9390723,15.9584695 C16.1559449,15.3944722 16.6497361,14.810538 17.4787541,14.810538 C18.5650348,14.810538 18.9992595,15.6767216 18.9992595,16.9460919 L18.9992595,21.9997492 L21.9998801,21.9997492 L22,16.5836565 Z" id="Shape" fill="#FFFFFF"></path>
            </g>
        </g>
    </g>
</svg>