<svg width="30" height="30" viewBox="0 0 30 30" xmlns="http://www.w3.org/2000/svg">
    <g fill="none" fill-rule="evenodd">
        <path fill="#BD081C" d="M0 0h30v30H0z"/>
        <circle fill="#FFF" cx="15" cy="15" r="13"/>
        <path d="M15 3C8.372 3 3 8.371 3 15c0 5.083 3.163 9.426 7.626 11.175-.105-.95-.199-2.406.043-3.444.217-.936 1.407-5.964 1.407-5.964s-.36-.719-.36-1.781c0-1.67.967-2.915 2.172-2.915 1.023 0 1.518.769 1.518 1.69 0 1.03-.656 2.57-.995 3.996-.282 1.196.6 2.169 1.778 2.169 2.133 0 3.772-2.25 3.772-5.496 0-2.874-2.063-4.882-5.012-4.882-3.414 0-5.418 2.562-5.418 5.208 0 1.031.396 2.137.892 2.739.098.119.112.222.084.344-.09.38-.294 1.195-.333 1.36-.053.22-.175.267-.403.162-1.498-.698-2.434-2.89-2.434-4.649 0-3.785 2.75-7.263 7.928-7.263 4.163 0 7.398 2.967 7.398 6.931 0 4.136-2.608 7.465-6.226 7.465-1.217 0-2.36-.633-2.752-1.379 0 0-.601 2.29-.747 2.852-.271 1.043-1.003 2.349-1.49 3.146 1.121.349 2.314.536 3.552.536 6.628 0 12-5.372 12-12 0-6.629-5.372-12-12-12" fill="#BD081C"/>
    </g>
</svg>
