<?xml version="1.0" encoding="UTF-8"?>
<svg width="18.2857143px" height="16px" viewBox="0 0 18.2857143 16" version="1.1" xmlns="http://www.w3.org/2000/svg" xmlns:xlink="http://www.w3.org/1999/xlink">
    <title>1BA3A9D6-E572-4E1C-9830-6AB46BAE7140</title>
    <g id="Page-1" stroke="none" stroke-width="1" fill="none" fill-rule="evenodd">
        <g id="Herpigo_Page_Medium" transform="translate(-437.000000, -5731.000000)" fill="#55ACEE">
            <path d="M445.878758,5735.25625 L445.918395,5735.9483 L445.257773,5735.86356 C442.85311,5735.53872 440.752332,5734.4371 438.968653,5732.58693 L438.096632,5731.66891 L437.872021,5732.34684 C437.396373,5733.85804 437.700259,5735.45398 438.691192,5736.52735 C439.219689,5737.12054 439.100777,5737.20528 438.189119,5736.85219 C437.872021,5736.7392 437.59456,5736.65446 437.568135,5736.69683 C437.475648,5736.7957 437.792746,5738.08092 438.043783,5738.58937 C438.387306,5739.29553 439.087565,5739.98758 439.853886,5740.39716 L440.501296,5740.72199 L439.734974,5740.73612 C438.995078,5740.73612 438.968653,5740.75024 439.047928,5741.04683 C439.312176,5741.96485 440.355959,5742.93936 441.518653,5743.36306 L442.337825,5743.65966 L441.624353,5744.1116 C440.567358,5744.76128 439.325389,5745.12849 438.08342,5745.15673 C437.48886,5745.17086 437,5745.22735 437,5745.26972 C437,5745.41095 438.611917,5746.20186 439.55,5746.51258 C442.364249,5747.4306 445.706996,5747.03514 448.217359,5745.46745 C450.001038,5744.3517 451.784717,5742.13433 452.617101,5739.98758 C453.066323,5738.84359 453.515546,5736.75333 453.515546,5735.75057 C453.515546,5735.10089 453.555184,5735.01615 454.29508,5734.23937 C454.731091,5733.78742 455.140676,5733.2931 455.219951,5733.15187 C455.352075,5732.88352 455.338863,5732.88352 454.665028,5733.12362 C453.541971,5733.54732 453.383422,5733.49083 453.938344,5732.85528 C454.34793,5732.40333 454.83679,5731.58417 454.83679,5731.34408 C454.83679,5731.30171 454.638603,5731.37232 454.413992,5731.49943 C454.176168,5731.64067 453.647671,5731.85252 453.251298,5731.97963 L452.537826,5732.21973 L451.890417,5731.75365 C451.533681,5731.49943 451.031608,5731.21697 450.767359,5731.13223 C450.093525,5730.9345 449.062955,5730.96275 448.455183,5731.18872 C446.803628,5731.82427 445.759846,5733.46258 445.878758,5735.25625 Z" id="twittr"></path>
        </g>
    </g>
</svg>