<?xml version="1.0" encoding="UTF-8"?>
<svg width="30px" height="30px" viewBox="0 0 30 30" version="1.1" xmlns="http://www.w3.org/2000/svg" xmlns:xlink="http://www.w3.org/1999/xlink">
    <title>4C0A46CC-D79E-44BA-9B2B-A6A3227B1402</title>
    <g id="Page-1" stroke="none" stroke-width="1" fill="none" fill-rule="evenodd">
        <g id="Herpigo_Page_Medium" transform="translate(-742.000000, -433.000000)">
            <g id="Twitter-Icon" transform="translate(742.000000, 433.000000)">
                <rect id="Rectangle" fill="#55ACEE" x="0" y="0" width="30" height="30"></rect>
                <path d="M14.768913,11.7242192 L14.8035956,12.3297587 L14.2255515,12.255611 C12.1214709,11.9713782 10.2832906,11.0074582 8.72257148,9.38856692 L7.95955324,8.58530027 L7.76301824,9.1784818 C7.34682647,10.5007823 7.61272677,11.8972305 8.47979295,12.8364346 C8.94222825,13.3554684 8.83818031,13.4296161 8.04047942,13.1206674 C7.76301824,13.0218038 7.52023971,12.9476561 7.49711794,12.98473 C7.41619177,13.0712356 7.69365295,14.1958089 7.91330971,14.6406951 C8.21389265,15.2585925 8.82661942,15.864132 9.4971506,16.2225125 L10.0636338,16.5067453 L9.39310266,16.5191033 C8.74569325,16.5191033 8.72257148,16.5314612 8.79193678,16.7909781 C9.02315442,17.5942448 9.93646414,18.4469432 10.9538218,18.8176817 L11.6705965,19.0771986 L11.0463088,19.472653 C10.1214383,20.0411186 9.03471531,20.3624253 7.94799236,20.3871412 C7.42775265,20.3994991 7,20.4489309 7,20.4860048 C7,20.6095842 8.41042766,21.3016294 9.23125031,21.5735042 C11.6937183,22.3767709 14.6186215,22.0307483 16.8151892,20.659016 C18.3759083,19.6827381 19.9366274,17.7425402 20.664963,15.864132 C21.058033,14.8631381 21.451103,13.0341618 21.451103,12.1567474 C21.451103,11.5882818 21.4857857,11.5141341 22.1331951,10.8344469 C22.5147042,10.4389926 22.8730916,10.0064644 22.9424569,9.88288487 C23.0580657,9.64808384 23.0465048,9.64808384 22.4568998,9.85816897 C21.4742248,10.2289074 21.3354942,10.1794756 21.8210513,9.62336795 C22.1794386,9.22791359 22.6071913,8.51115257 22.6071913,8.30106745 C22.6071913,8.2639936 22.433778,8.32578335 22.237243,8.43700488 C22.0291471,8.56058437 21.5667119,8.7459536 21.2198854,8.85717513 L20.5955977,9.06726026 L20.0291145,8.65944796 C19.7169707,8.43700488 19.2776571,8.18984591 19.0464395,8.11569822 C18.4568345,7.94268694 17.5550857,7.96740284 17.0232851,8.16513001 C15.5781748,8.7212377 14.664865,10.1547597 14.768913,11.7242192 Z" id="Shape" fill="#FFFFFF"></path>
            </g>
        </g>
    </g>
</svg>